<?xml version="1.0" encoding="iso-8859-1"?>
<!-- Generator: Adobe Illustrator 18.0.0, SVG Export Plug-In . SVG Version: 6.00 Build 0)  -->
<!DOCTYPE svg PUBLIC "-//W3C//DTD SVG 1.1//EN" "http://www.w3.org/Graphics/SVG/1.1/DTD/svg11.dtd">
<svg version="1.1" id="Capa_1" xmlns="http://www.w3.org/2000/svg" xmlns:xlink="http://www.w3.org/1999/xlink" x="0px" y="0px"
	 viewBox="0 0 491.835 491.835" style="enable-background:new 0 0 491.835 491.835;" xml:space="preserve">
<g>
	<path d="M290.166,374.956c-3.806-21.138-15.229-39.176-31.118-51.685c-5.052-3.983-9.148-8.955-12.331-14.468
		c-9.929,7.855-21.449,12.93-33.862,14.285c0.017,0.055,0.081,0.079,0.081,0.135l15.341,97.711c0.19,1.26-0.097,2.549-0.796,3.609
		l-17.098,25.646c-0.94,1.418-2.531,2.27-4.241,2.27c-1.702,0-3.294-0.852-4.234-2.27l-17.098-25.646
		c-0.704-1.061-0.991-2.35-0.801-3.609l15.347-97.711c0-0.056,0.064-0.08,0.08-0.135c-12.412-1.355-23.932-6.422-33.862-14.277
		c-3.167,5.505-7.247,10.461-12.331,14.46c-15.888,12.509-27.313,30.547-31.119,51.685l-15.6,86.818
		c-1.099,6.055,0.558,12.277,4.512,17.002c3.931,4.717,9.762,7.441,15.913,7.441h158.388c6.156,0,11.988-2.725,15.921-7.441
		c3.953-4.725,5.608-10.947,4.511-17.002L290.166,374.956z"/>
	<path d="M197.27,158.795l-2.267,17.735c-1.083,8.453-6.755,15.44-14.8,18.245c-2.361,0.813-4.812,1.227-7.312,1.227
		c-5.61,0-10.821-2.183-14.87-5.879c-6.469,12.031-10.294,26.579-10.294,42.291c0,41.294,26.15,74.773,58.413,74.773
		c32.254,0,58.404-33.479,58.404-74.773c0-41.287-26.15-74.765-58.404-74.765C203.103,157.648,200.184,158.222,197.27,158.795z"/>
	<path d="M124.051,157.123c7.01-0.55,13.845-1.498,20.393-2.885l24.272,23.743c1.131,1.115,2.643,1.705,4.177,1.705
		c0.652,0,1.32-0.103,1.957-0.326c2.15-0.749,3.683-2.645,3.97-4.892l4.441-34.842c6.841-3.951,12.91-8.469,18.17-13.424
		c13.334-12.524,21.283-27.893,21.283-44.561c0-41.987-49.854-76.023-111.362-76.023C49.859,5.617,0,39.653,0,81.64
		c0,41.972,49.859,76.008,111.352,76.008C115.65,157.648,119.875,157.441,124.051,157.123z M153.672,66.941
		c8.129,0,14.709,6.573,14.709,14.684c0,8.118-6.58,14.699-14.709,14.699c-8.108,0-14.673-6.581-14.673-14.699
		C138.999,73.514,145.564,66.941,153.672,66.941z M69.027,96.324c-8.109,0-14.689-6.581-14.689-14.699
		c0-8.111,6.58-14.684,14.689-14.684c8.13,0,14.692,6.573,14.692,14.684C83.72,89.743,77.157,96.324,69.027,96.324z M96.674,81.625
		c0-8.111,6.564-14.684,14.678-14.684c8.126,0,14.706,6.573,14.706,14.684c0,8.118-6.58,14.699-14.706,14.699
		C103.238,96.324,96.674,89.743,96.674,81.625z"/>
	<path d="M380.483,211.619c-46.258,0-85.901,19.249-102.73,46.656c-4.207,6.836-6.977,14.173-8.076,21.845
		c-0.366,2.479-0.557,4.98-0.557,7.522c0,23.248,15.342,44.043,39.454,57.986l4.441,34.84c0.287,2.248,1.82,4.143,3.971,4.893
		c2.133,0.74,4.524,0.215,6.133-1.379l24.267-23.742c10.454,2.215,21.577,3.41,33.097,3.41c61.492,0,111.352-34.036,111.352-76.008
		C491.835,245.654,441.975,211.619,380.483,211.619z M338.163,302.325c-8.13,0-14.71-6.581-14.71-14.699
		c0-8.111,6.58-14.684,14.71-14.684c8.108,0,14.673,6.572,14.673,14.684C352.836,295.744,346.272,302.325,338.163,302.325z
		 M380.483,302.325c-8.125,0-14.705-6.581-14.705-14.699c0-8.111,6.58-14.684,14.705-14.684c8.114,0,14.679,6.572,14.679,14.684
		C395.161,295.744,388.597,302.325,380.483,302.325z M422.807,302.325c-8.129,0-14.693-6.581-14.693-14.699
		c0-8.111,6.564-14.684,14.693-14.684c8.109,0,14.689,6.572,14.689,14.684C437.496,295.744,430.916,302.325,422.807,302.325z"/>
</g>
<g>
</g>
<g>
</g>
<g>
</g>
<g>
</g>
<g>
</g>
<g>
</g>
<g>
</g>
<g>
</g>
<g>
</g>
<g>
</g>
<g>
</g>
<g>
</g>
<g>
</g>
<g>
</g>
<g>
</g>
</svg>
